{"title":"Die Hard wit a Vengeance(1995)MPEG-4[DaScubaDude]","uid":14482415,"size":1283202326,"categoryP":"video","categoryS":"movies","magnet":"?xt=urn:btih:70c548756a7f81683d61c0b91058081dc480d978&amp;dn=Die+Hard+wit+a+Vengeance%281995%29MPEG-4%5BDaScubaDude%5D&amp;tr=udp%3A%2F%2Ftracker.leechers-paradise.org%3A6969&amp;tr=udp%3A%2F%2Fzer0day.ch%3A1337&amp;tr=udp%3A%2F%2Fopen.demonii.com%3A1337&amp;tr=udp%3A%2F%2Ftracker.coppersurfer.tk%3A6969&amp;tr=udp%3A%2F%2Fexodus.desync.com%3A6969","seeders":0,"leechers":1,"uploader":"dascuba","files":1,"time":1461990601,"description":"Die Hard: With a Vengeance (1995)\r\nR | 2h 8min | Action, Adventure, Thriller | 19 May 1995 (USA)\r\nJohn McClane and a Harlem store owner are targeted by German terrorist Simon Gruber in New York City, where he plans to rob the Federal Reserve Building.\r\nDirector: John McTiernan\r\nWriters: Jonathan Hensleigh, Roderick Thorp (certain original characters)\r\nStars: Bruce Willis, Jeremy Irons, Samuel L. Jackson |\r\n\r\nGeneral\r\nComplete name                            : DH With a VengeanceDIE_HARD_3_DISC1_Title1.mp4\r\nFormat                                   : MPEG-4\r\nFormat profile                           : Base Media\r\nCodec ID                                 : isom (isom/iso2/avc1/mp41)\r\nFile size                                : 1.20 GiB\r\nDuration                                 : 2h 8mn\r\nOverall bit rate                         : 1 332 Kbps\r\nMovie name                               : DIE_HARD_3_DISC1\r\nGenre                                    : Action\r\nWriting application                      : Lavf54.6.100\r\n\r\nVideo\r\nID                                       : 1\r\nFormat                                   : AVC\r\nFormat/Info                              : Advanced Video Codec\r\nFormat profile                           :   \r\nFormat settings, CABAC                   : No\r\nFormat settings, ReFrames                : 6 frames\r\nCodec ID                                 : avc1\r\nCodec ID/Info                            : Advanced Video Coding\r\nDuration                                 : 2h 8mn\r\nBit rate                                 : 1 198 Kbps\r\nWidth                                    : 720 pixels\r\nHeight                                   : 404 pixels\r\nDisplay aspect ratio                     : 16:9\r\nFrame rate mode                          : Constant\r\nFrame rate                               : 29.970 (30000/1001) fps\r\nColor space                              : YUV\r\nChroma subsampling                       : 4:2:0\r\nBit depth                                : 8 bits\r\nScan type                                : Progressive\r\nBits/(Pixel*Frame)                       : 0.137\r\nStream size                              : 1.07 GiB (90%)\r\n\r\nAudio\r\nID                                       : 2\r\nFormat                                   : AAC\r\nFormat/Info                              : Advanced Audio Codec\r\nFormat profile                           : LC\r\nCodec ID                                 : 40\r\nDuration                                 : 2h 8mn\r\nBit rate mode                            : Constant\r\nBit rate                                 : 128 Kbps\r\nChannel(s)                               : 2 channels\r\nChannel positions                        : Front: L R\r\nSampling rate                            : 44.1 KHz\r\nFrame rate                               : 43.066 fps (1024 spf)\r\nCompression mode                         : Lossy\r\nStream size                              : 118 MiB (10%)\r\nDefault                                  : Yes\r\nAlternate group                          : 1","torrent":{"xt":"urn:btih:70c548756a7f81683d61c0b91058081dc480d978","amp;dn":"Die+Hard+wit+a+Vengeance%281995%29MPEG-4%5BDaScubaDude%5D","amp;tr":["udp%3A%2F%2Ftracker.leechers-paradise.org%3A6969","udp%3A%2F%2Fzer0day.ch%3A1337","udp%3A%2F%2Fopen.demonii.com%3A1337","udp%3A%2F%2Ftracker.coppersurfer.tk%3A6969","udp%3A%2F%2Fexodus.desync.com%3A6969"],"infoHash":"70c548756a7f81683d61c0b91058081dc480d978","infoHashBuffer":{"type":"Buffer","data":[112,197,72,117,106,127,129,104,61,97,192,185,16,88,8,29,196,128,217,120]},"announce":[],"urlList":[]}}